#!OML:ASF E:\emotionWalksFemale\Project 1\Capture day 1\Session 1\Female1.ASF
:FULLY-SPECIFIED
:DEGREES
1329
root 4.78895 15.3377 2.22501 365.917 -56.7 352.252
lowerback 6.45346 3.11216 5.23432
upperback -3.43967 4.65911 0.0843979
thorax -6.8251 2.04581 -3.39475
lowerneck -10.034 0.40576 -6.0846
upperneck 20.9733 0.182627 6.32813
head 8.1055 0.160432 3.14806
rclavicle -1.01927e-013 -4.77083e-015
rhumerus -31.1254 15.4432 -86.4279
rradius 43.8486
rwrist 14.0522
rhand -5.53319 -50.7103
rfingers 7.12502
rthumb 20.281 -79.6714
lclavicle -1.01927e-013 -4.77083e-015
lhumerus -54.1273 15.1008 60.3644
lradius 35.3596
lwrist -14.0331
lhand -3.68858 -30.3901
lfingers 7.12502
lthumb 22.053 -1.62756
rfemur 26.6774 8.97782 35.5504
rtibia -4.77083e-014
rfoot -2.057 -20.3222
rtoes -3.2326
lfemur -28.4221 -24.9643 -10.7921
ltibia 23.5969
lfoot -25.8808 31.235
ltoes -4.78365
1330
root 4.66676 15.3475 2.35495 365.819 -56.6911 352.348
lowerback 6.35031 3.09911 5.24433
upperback -3.4572 4.63466 0.0553993
thorax -6.78345 2.03391 -3.4215
lowerneck -10.0804 0.561656 -5.90443
upperneck 20.9548 0.373705 6.3127
head 8.09499 0.265097 3.13051
rclavicle 2.02512e-014 -4.37326e-015
rhumerus -31.1774 15.3428 -86.6322
rradius 43.3955
rwrist 14.7301
rhand -5.75335 -49.8861
rfingers 7.12502
rthumb 20.0694 -78.8696
lclavicle 2.02512e-014 -4.37326e-015
lhumerus -54.1992 15.1366 60.1119
lradius 35.4238
lwrist -13.9457
lhand -3.85825 -30.4133
lfingers 7.12502
lthumb 21.8901 -1.63154
rfemur 27.203 8.46555 35.1105
rtibia -3.18055e-014
rfoot -1.06086 -19.5884
rtoes -3.49367
lfemur -27.8647 -23.4688 -11.8889
ltibia 24.0501
lfoot -23.4274 29.7404
ltoes -8.34415
1331
root 4.54228 15.3613 2.48977 365.693 -56.6627 352.397
lowerback 6.34614 3.07269 5.23165
upperback -3.54193 4.60409 0.115673
thorax -6.88043 2.01552 -3.35136
lowerneck -10.1559 0.664521 -5.89248
upperneck 21.1572 0.506928 6.32452
head 8.16707 0.329392 3.15056
rclavicle -2.77056e-014 2.78299e-015
rhumerus -31.5613 15.4859 -86.7709
rradius 43.3994
rwrist 15.2475
rhand -5.08311 -49.9371
rfingers 7.12502
rthumb 20.7136 -78.8517
lclavicle -2.77056e-014 2.78299e-015
lhumerus -54.5309 15.4318 59.7486
lradius 35.549
lwrist -14.251
lhand -3.82683 -30.6069
lfingers 7.12502
lthumb 21.9202 -1.82874
rfemur 27.8068 7.93236 34.6815
rtibia 3.49861e-014
rfoot 0.0838869 -18.873
rtoes -3.19217
lfemur -27.216 -22.019 -12.9914
ltibia 24.5093
lfoot -20.3043 28.5462
ltoes -12.7625
1332
root 4.41291 15.3754 2.62908 365.497 -56.7121 352.431
lowerback 6.28157 3.10032 5.26178
upperback -3.58277 4.64158 0.128318
thorax -6.88231 2.03192 -3.35593
lowerneck -10.1746 0.753233 -5.76491
upperneck 21.3919 0.603798 6.28624
head 8.2432 0.379199 3.13079
rclavicle 2.03257e-014 -1.19271e-015
rhumerus -32.0384 15.6086 -86.9822
rradius 43.4151
rwrist 14.8774
rhand -5.5083 -49.7677
rfingers 7.12502
rthumb 20.305 -78.7263
lclavicle 2.03257e-014 -1.19271e-015
lhumerus -54.7427 15.6097 59.4442
lradius 35.7652
lwrist -14.2588
lhand -3.49301 -30.8665
lfingers 7.12502
lthumb 22.2407 -2.12616
rfemur 28.4609 7.45471 34.2752
rtibia 6.36111e-015
rfoot 1.91883 -18.2424
rtoes -5.05071
lfemur -26.4593 -21.4561 -13.7866
ltibia 24.8224
lfoot -17.9139 27.8447
ltoes -14.8393
1333
root 4.28286 15.3943 2.77045 365.068 -56.7318 352.72
lowerback 6.2213 3.14127 5.23127
upperback -3.59854 4.68518 0.0475396
thorax -6.85573 2.05367 -3.42454
lowerneck -9.99537 0.81124 -5.79467
upperneck 21.3675 0.638054 6.47892
head 8.19739 0.409069 3.20131
rclavicle -8.00605e-014 -1.45113e-014
rhumerus -32.4337 15.4845 -87.212
rradius 43.097
rwrist 14.0675
rhand -7.33453 -48.6118
rfingers 7.12502
rthumb 18.5491 -77.7475
lclavicle -8.00605e-014 -1.45113e-014
lhumerus -54.7686 15.389 59.4105
lradius 35.9765
lwrist -13.6944
lhand -3.17952 -30.6569
lfingers 7.12502
lthumb 22.5417 -1.95281
rfemur 29.078 6.94905 33.6943
rtibia 3.49861e-014
rfoot 4.09153 -17.4756
rtoes -6.76847
lfemur -25.7442 -21.9421 -14.3215
ltibia 24.9447
lfoot -16.7267 27.6642
ltoes -13.4663
1334
root 4.15617 15.4106 2.91165 364.29 -56.678 353.415
lowerback 6.27718 3.14524 4.96414
upperback -3.64928 4.66742 -0.00893577
thorax -6.95843 2.05168 -3.3399
lowerneck -9.83362 0.8372 -5.98236
upperneck 21.3467 0.672536 6.60912
head 8.15588 0.420646 3.27782
rclavicle 1.17134e-013 2.54444e-014
rhumerus -32.9551 15.3453 -87.3019
rradius 42.9809
rwrist 13.8244
rhand -7.69958 -48.4233
rfingers 7.12502
rthumb 18.1979 -77.592
lclavicle 1.17134e-013 2.54444e-014
lhumerus -54.8637 15.1219 59.5495
lradius 36.0982
lwrist -13.2005
lhand -3.09617 -30.1785
lfingers 7.12502
lthumb 22.6217 -1.4841
rfemur 25.908 6.31101 32.7916
rtibia 7.65538
rfoot 2.11192 -17.0345
rtoes -6.7221
lfemur -24.9405 -22.2973 -15.1082
ltibia 24.8981
lfoot -16.1487 27.2815
ltoes -9.47974
1335
root 4.0317 15.4216 3.05442 363.406 -56.614 354.281
lowerback 6.23542 3.1391 4.62364
upperback -3.66099 4.62083 -0.0826121
thorax -6.9692 2.04293 -3.22085
lowerneck -9.94198 0.875691 -5.91959
upperneck 21.5699 0.756712 6.39965
head 8.24728 0.444582 3.21113
rclavicle -2.05742e-014 -1.03368e-014
rhumerus -33.4663 15.2637 -87.391
rradius 42.9995
rwrist 13.7172
rhand -7.41672 -48.9527
rfingers 7.12502
rthumb 18.47 -78.0958
lclavicle -2.05742e-014 -1.03368e-014
lhumerus -54.8219 15.029 59.6366
lradius 36.0964
lwrist -13.0037
lhand -3.28374 -30.1793
lfingers 7.12502
lthumb 22.4416 -1.46306
rfemur 24.1379 5.70369 31.732
rtibia 12.4222
rfoot 1.87344 -16.2834
rtoes -6.44163
lfemur -23.9757 -21.7877 -16.2742
ltibia 24.7581
lfoot -15.491 26.1916
ltoes -4.26323
1336
root 3.9086 15.4341 3.19596 362.537 -56.5615 355.092
lowerback 6.21085 3.13681 4.27931
upperback -3.65731 4.57997 -0.153195
thorax -6.97331 2.03773 -3.09751
lowerneck -10.0694 1.00296 -5.73624
upperneck 21.8832 0.946667 6.15804
head 8.36685 0.523972 3.12554
rclavicle 6.05796e-014 1.31198e-014
rhumerus -33.9715 15.3234 -87.6366
rradius 43.0938
rwrist 13.3503
rhand -7.6102 -49.2591
rfingers 7.12502
rthumb 18.2839 -78.4198
lclavicle 6.05796e-014 1.31198e-014
lhumerus -54.6757 14.9979 59.6772
lradius 35.9547
lwrist -12.8633
lhand -3.69118 -30.3517
lfingers 7.12502
lthumb 22.0505 -1.58878
rfemur 22.59 4.85596 30.565
rtibia 16.6408
rfoot 2.18688 -15.3967
rtoes -5.05569
lfemur -22.9036 -20.9431 -17.5133
ltibia 24.5793
lfoot -13.476 25.2272
ltoes -5.04978
1337
root 3.78662 15.4454 3.33236 361.699 -56.4941 355.854
lowerback 6.27643 3.16583 3.94688
upperback -3.66818 4.58606 -0.238129
thorax -7.03933 2.05243 -3.00775
lowerneck -10.0381 1.11128 -5.74833
upperneck 21.9937 1.0843 6.20206
head 8.38819 0.590918 3.15796
rclavicle -1.89591e-014 -8.15017e-015
rhumerus -34.3627 14.8601 -87.5802
rradius 43.0537
rwrist 13.9209
rhand -6.74242 -49.6528
rfingers 7.12502
rthumb 19.1185 -78.7332
lclavicle -1.89591e-014 -8.15017e-015
lhumerus -54.5433 15.0752 59.6036
lradius 35.8838
lwrist -12.9102
lhand -3.89142 -30.457
lfingers 7.12502
lthumb 21.8582 -1.67158
rfemur 21.126 3.977 29.3693
rtibia 20.5116
rfoot 3.04106 -14.4138
rtoes -4.19371
lfemur -21.8912 -20.0777 -18.6615
ltibia 24.4377
lfoot -11.0629 24.1924
ltoes -8.12367
1338
root 3.66431 15.4553 3.46788 360.826 -56.3571 356.678
lowerback 6.3527 3.18504 3.635
upperback -3.66982 4.57533 -0.403241
thorax -7.09506 2.05645 -3.01175
lowerneck -9.97128 1.14197 -5.71562
upperneck 21.9205 1.08681 6.35375
head 8.34917 0.61002 3.20127
rclavicle -2.99668e-014 -3.97569e-015
rhumerus -34.8948 14.4237 -87.6491
rradius 43.2939
rwrist 14.4702
rhand -5.28472 -50.2534
rfingers 7.12502
rthumb 20.5198 -79.189
lclavicle -2.99668e-014 -3.97569e-015
lhumerus -54.4251 15.1878 59.3978
lradius 36.0305
lwrist -13.1255
lhand -3.6875 -30.5905
lfingers 7.12502
lthumb 22.054 -1.82808
rfemur 19.6657 2.9526 28.0391
rtibia 24.143
rfoot 4.50201 -13.1178
rtoes -5.16436
lfemur -20.9437 -19.2469 -19.801
ltibia 24.3129
lfoot -9.6212 22.8339
ltoes -8.03866
1339
root 3.5425 15.4692 3.60469 359.955 -56.1911 357.454
lowerback 6.45502 3.15857 3.33126
upperback -3.63312 4.50427 -0.559688
thorax -7.1294 2.03183 -3.00449
lowerneck -10.1312 1.20692 -5.32886
upperneck 22.0083 1.14704 6.18324
head 8.40943 0.655085 3.0881
rclavicle 6.21699e-014 6.16232e-015
rhumerus -35.3993 14.1776 -87.796
rradius 43.2314
rwrist 14.2035
rhand -5.5023 -49.7943
rfingers 7.12502
rthumb 20.3107 -78.7523
lclavicle 6.21699e-014 6.16232e-015
lhumerus -54.2352 15.1694 59.3296
lradius 36.1698
lwrist -13.189
lhand -3.52001 -30.6069
lfingers 7.12502
lthumb 22.2148 -1.86346
rfemur 18.2281 1.86527 26.6689
rtibia 27.6908
rfoot 6.362 -11.8519
rtoes -5.67928
lfemur -19.8537 -18.531 -20.9061
ltibia 24.0199
lfoot -8.92801 21.5606
ltoes -7.33973
